
	<svg xmlns="http://www.w3.org/2000/svg" xmlns:xlink="http://www.w3.org/1999/xlink" version="1.1" width="128" height="128" viewBox="0 0 100 100">


		<defs>
			<g id="background">
<path fill="url(#background-gradient)" stroke="none" d=" M 90.75 23.05 Q 89.5 23.05 88.85 24.15 88.15 25.25 88.85 26.35 97.25 40.2 95.15 56.15 93.05 71.65 81.75 82.6 70.35 93.7 54.9 95.25 32.95 97.55 17.6 81.85 2.2 66.2 4.85 44.2 6.6 30.2 16.15 19.7 25.65 9.1 39.25 5.8 50.55 3 61.7 5.95 62.85 6.3 63.7 5.65 64.6 5 64.6 3.85 64.6 2.25 62.95 1.7 52.55 -1.1 41.6 0.65 25.55 3.3 14.4 14.85 3.1 26.25 0.65 42.4 -2.95 66.9 14 84.5 30.85 102.1 55.2 99.7 72.6 97.9 85.2 85.4 97.95 72.8 99.7 55.35 101.45 38.55 92.75 24.05 92.05 23.05 90.75 23.05 Z"/>
</g><mask id="mask">
<path fill="#FFFFFF" stroke="none" d=" M 82.2 82.15 Q 95.5 68.85 95.5 49.95 95.5 31.1 82.2 17.8 68.85 4.5 50 4.5 31.15 4.5 17.8 17.8 4.5 31.1 4.5 49.95 4.5 68.85 17.8 82.15 31.15 95.45 50 95.45 68.85 95.45 82.2 82.15 Z"/>
</mask>
			
	<linearGradient id="background-gradient" x1="0" y1="0" y2="1" x2="0" >
		<stop stop-color="#fff" offset="0%"/>
		<stop stop-color="#2edf6e" offset="100%"/>
	</linearGradient>

			
			
			<g transform="scale(0.3690554318600662) translate(-9.097999572753906 -6.502143859863281)" id="picture">
    <path fill="#fff" d="M244.947 102.965h-18.254c-3.48 0-6.848.909-9.246 2.494l-26.536 17.547V89.442h.406c6.721 0 12.189-3.44 12.189-7.669s-5.468-7.668-12.189-7.668h-.406v-13.8c0-1.413-1.82-2.557-4.063-2.557s-4.063 1.144-4.063 2.556v13.8h-24.236l-16.496-4.919a5.89 5.89 0 0 0-.322-.114l-1.765-.547c10.925-.916 19.381-6.812 19.381-13.931 0-7.753-10.024-14.06-22.345-14.06s-22.346 6.307-22.346 14.06c0 3.406 1.936 6.531 5.15 8.966a21.843 13.743 0 0 0-7.37.598l-6.219-1.93c-10.767-3.34-23.845-.547-29.154 6.227l-14.046 17.92c-2.028 2.586-2.32 5.51-.826 8.236 1.495 2.726 4.592 4.916 8.722 6.166l4.404 1.332c-2.292 4.953-1.397 10.308 2.661 14.924l-.358.226-.004.002a26.303 16.549 0 0 0-.004.003l-19.551 12.3c-.024.016-.05.028-.073.042l-9.853 6.198c-1.585 1-1.585 2.618 0 3.616l18.673 11.748c.078.05.16.095.245.139h-22c-2.244 0-4.063 1.144-4.063 2.556s1.82 2.556 4.063 2.556h39.004c3.886 0 7.553-.946 10.322-2.662l29.574-18.338a5.404 3.4 0 0 1 3.813-.983h42.375c9.343 0 18.395-2.443 24.836-6.702l28.356-18.75a4.66 2.931 0 0 1 3.36-.906h14.191v45.785c0 1.412 1.82 2.556 4.063 2.556 2.244 0 4.063-1.144 4.063-2.556v-48.34c0-1.413-1.819-2.557-4.063-2.557zM195.38 81.773c0 1.41-1.822 2.557-4.063 2.557h-32.254l1.824-5.113h30.43c2.24 0 4.063 1.147 4.063 2.556zM137 45.646c7.842 0 14.22 4.013 14.22 8.947 0 4.932-6.378 8.946-14.22 8.946-7.84 0-14.22-4.014-14.22-8.946 0-4.934 6.38-8.947 14.22-8.947zM124.867 69.54l12.902 4.003c.135.054.277.104.424.148l14.766 4.404-1.825 5.114-16.421-4.898-.078-.02c-.038-.012-.073-.027-.111-.038l-8.997-2.776a4.064 2.557 0 0 0-3.578 4.59l5.341 1.648-10.467 13.354h-27.18l16.952-21.627c3.328-4.246 11.524-5.996 18.272-3.902zm-32.898 53.136l-5.746-3.616a4.056 2.552 0 0 0 .943-1.752h8.129c-.027 2.003-1.2 3.891-3.326 5.368zm7.111-15.002c-1.974 1.242-3.23 2.816-3.638 4.521H83.43a22.9 14.408 0 0 1 .332-9.852 4.043 2.543 0 0 0 .387-.398c.16-.21.267-.427.332-.645a22.798 14.344 0 0 1 .946-1.119h31.736l-4.063 5.113h-4.886c-3.45 0-6.695.846-9.134 2.38zm26.283 5.779l8.126-1.374v7.018h-8.126v-5.644zm8.126-1.024l-9.435 1.596a9.848 6.196 0 0 0-2.783-1.933l4.978-11.91h1.517c3.155 0 5.723 1.615 5.723 3.599v8.648zm-30.867-48.62l1.351.42a21.672 13.635 0 0 0-4.666 3.949l-3.6 4.592-12.494-3.608 1.137-1.45c3.327-4.245 11.524-5.997 18.272-3.903zm-32.75 26.13a8.855 5.571 0 0 1 .431-4.309l9.315-11.88 12.493 3.607-12.577 16.046-.955 1.016-4.145-1.255c-2.16-.653-3.78-1.8-4.562-3.225zm10.618 32.744l5.745 3.615-13.88 8.732-5.744-3.615 13.879-8.732zM56.754 137.61l4.106-2.583 5.947 3.741c1.865 1.173 2.891 2.732 2.891 4.392a9.873 6.212 0 0 1-.633 2.196l-12.31-7.746zm44.232 20.25a9.939 6.253 0 0 1-16.93-6.555H72.31c.082-.045.164-.09.244-.14 3.4-2.138 5.27-4.98 5.27-8.005 0-1.287-.34-2.539-.99-3.718l20.434-12.857c3.97-2.498 6.156-5.818 6.156-9.35v-3.815c0-.805.498-1.562 1.403-2.131a4.752 2.99 0 0 1 3.387-.883h7.367a1.66 1.045 0 0 1 1.657 1.044v20.428c0 .164.026.324.073.48l-16.325 25.502zm26.78-28.539h-2.403v-5.112h8.396c5.298 0 9.816 2.137 11.492 5.112h-17.485zm43.382 0c-1.35-4.174-5.945-7.614-12.048-9.23V103.78c0-4.804-6.214-8.712-13.85-8.712h-1.883l8.726-11.132 17.629 5.258c.141.043.287.077.434.11l.075.013c.06.012.12.025.18.035.026.005.055.007.082.011l.09.016c.067.01.137.014.205.021.064.007.126.015.189.02.167.013.333.021.499.021h11.309v37.822c-3.844 1.333-8.2 2.058-12.644 2.058h1.007zm15.7-77.41c1.068 0 2.117-.273 2.872-.748a4.104 2.582 0 0 0 1.19-1.808c0-.673-.434-1.332-1.19-1.807-.755-.478-1.804-.749-2.872-.749s-2.117.27-2.873.75a4.093 2.575 0 0 0-1.19 1.806 4.104 2.582 0 0 0 1.19 1.808 4.095 2.577 0 0 0 2.873.749zm37.785 4.302c13.44 0 24.377-6.88 24.377-15.337S238.073 25.54 224.633 25.54c-13.443 0-24.378 6.88-24.378 15.337 0 8.456 10.935 15.337 24.378 15.337zm0-25.562c8.96 0 16.251 4.587 16.251 10.225s-7.29 10.225-16.251 10.225-16.252-4.587-16.252-10.225 7.291-10.225 16.252-10.225zM64.068 204.647c-1.009 0-2.017-.07-3.36-.141s-2.69-.282-4.034-.565c-1.344-.282-2.688-.706-4.032-1.2a11.788 11.788 0 0 1-3.529-2.047c-1.008-.847-1.848-1.906-2.52-3.176-.672-1.27-1.008-2.753-1.008-4.447v-12.283c0-1.764.336-3.247 1.008-4.447.672-1.27 1.512-2.259 2.688-3.106 1.177-.847 2.353-1.553 3.865-2.047s3.024-.917 4.537-1.13c1.512-.281 3.192-.423 4.704-.493 1.68-.141 3.025-.212 4.37-.212 3.36 0 6.216.212 8.4.565 2.353.423 4.201.917 5.713 1.623 1.512.636 2.52 1.483 3.025 2.33.672.917 1.008 1.835 1.008 2.823 0 .777-.168 1.412-.336 2.047-.168.636-.504 1.341-.84 2.047H73.645v-1.623c0-3.812-2.352-5.718-7.225-5.718-1.344 0-2.52.07-3.36.282-1.009.212-1.849.495-2.353.989-.672.423-1.176 1.059-1.344 1.764-.336.777-.504 1.695-.504 2.753v15.742c0 1.058.168 1.976.504 2.682s.84 1.27 1.344 1.694c.672.424 1.344.706 2.352.918 1.009.211 2.017.282 3.361.282s2.52-.141 3.529-.424c1.008-.282 1.848-.705 2.52-1.27.672-.494 1.176-1.13 1.344-1.835s.336-1.412.336-2.26v-4.517h-6.385v-3.459h18.651v17.577h-8.233l-1.344-3.318c-1.513 1.27-3.36 2.188-5.377 2.753s-4.705.847-7.393.847z"/>
    <path stroke="null" d="M15 13.492h4.264l.517 4.1c.646-1.558 1.42-2.706 2.26-3.444.84-.738 1.68-1.148 2.585-1.148 1.68 0 2.907.656 3.747 1.968.775 1.312 1.227 3.28 1.227 5.904 0 .328 0 .738-.065 1.23s-.064.902-.193 1.476c-.065.492-.13.984-.259 1.476s-.194.984-.323 1.394h-4.07v-3.772c0-.82-.064-1.476-.129-2.05a5.952 5.952 0 0 0-.323-1.312c-.13-.328-.323-.574-.517-.656-.194-.164-.387-.164-.581-.164-.452 0-.905.164-1.292.574-.388.41-.71.902-.97 1.64V54H15V13.492z" fill="#fff" transform="matrix(2.55085 0 0 .65526 54.964 169.21)"/>
    <path d="M203.844 205.636c-3.272 0-6.232-.242-8.725-.725-2.493-.484-4.675-1.209-6.389-2.236-1.713-1.027-3.116-2.296-3.895-3.867s-1.402-3.384-1.402-5.62v-5.558c0-1.874.312-3.505 1.09-4.834s1.715-2.478 2.805-3.384 2.493-1.631 4.051-2.175c1.558-.544 3.116-.907 4.675-1.209s3.272-.483 4.83-.544c1.558-.06 3.116-.12 4.518-.12 2.493 0 4.986.12 7.323.423 2.337.302 4.363.785 6.077 1.51s3.116 1.632 4.206 2.84 1.559 2.659 1.559 4.471c0 .605 0 1.209-.156 1.813s-.156 1.209-.312 1.813-.311 1.148-.623 1.752c-.312.544-.468 1.088-.78 1.571h-25.24v3.021c0 1.27.156 2.357.311 3.263.312.906.624 1.571 1.247 2.115s1.402.906 2.493 1.148c1.09.242 2.337.363 3.895.363a17.3 17.3 0 0 0 2.493-.182 7.955 7.955 0 0 0 2.181-.664c.624-.303 1.091-.725 1.403-1.27.311-.543.623-1.147.623-1.933v-.906h11.841v1.148c0 2.78-1.714 4.834-5.141 6.103-3.428 1.208-8.414 1.873-14.958 1.873zm7.635-17.704c0-.182 0-.363.155-.605 0-.241 0-.543.156-.845v-1.572c0-1.933-.623-3.323-1.714-4.23-1.246-.845-2.96-1.268-5.297-1.268-1.247 0-2.337.12-3.272.362-.935.242-1.714.605-2.337 1.088a4.9 4.9 0 0 0-1.403 2.055c-.311.845-.467 1.933-.467 3.202v1.813h14.179z" fill="#fff"/>
    <path d="M24.1 50c-2.1 0-4-.368-5.6-1.104-1.6-.736-3-1.84-4.1-3.405-1.1-1.564-2-3.496-2.5-5.889s-.9-5.153-.9-8.557v-8.466c0-2.852.2-5.337.7-7.361s1.1-3.773 1.8-5.153 1.6-2.484 2.6-3.313c1-.828 2-1.38 3-1.84s2.1-.736 3.1-.828c1-.092 2-.184 2.9-.184 1.6 0 3.2.184 4.7.644s2.8 1.196 3.9 2.3 2 2.485 2.7 4.325 1 4.049 1 6.81c0 .92 0 1.84-.1 2.76s-.1 1.84-.2 2.76-.2 1.749-.4 2.669c-.2.828-.3 1.656-.5 2.392H20v4.601c0 1.932.1 3.589.2 4.969.2 1.38.4 2.392.8 3.22s.9 1.38 1.6 1.749c.7.368 1.5.552 2.5.552.5 0 1.1-.092 1.6-.276.5-.184 1-.552 1.4-1.012.4-.46.7-1.105.9-1.933.2-.828.4-1.748.4-2.944v-1.38H37v1.748c0 4.233-1.1 7.361-3.3 9.293C31.5 48.988 28.3 50 24.1 50zM29 23.04c0-.277 0-.553.1-.92 0-.369 0-.829.1-1.29v-2.39c0-2.945-.4-5.061-1.1-6.442-.8-1.288-1.9-1.932-3.4-1.932-.8 0-1.5.184-2.1.552-.6.368-1.1.92-1.5 1.656-.4.829-.7 1.84-.9 3.129-.2 1.288-.3 2.945-.3 4.877v2.76H29z" fill="#fff" stroke="null" transform="matrix(1.74055 0 0 .6162 114.379 174.126)"/>
    <path d="M229.262 175.314h8.369l16.6 21.02h.275c-.137-.502-.137-1.004-.275-1.632s-.274-1.255-.411-2.07c-.137-.753-.137-1.632-.274-2.573-.138-.941-.138-2.07-.138-3.263v-11.482h9.33v31.373h-8.507l-16.463-20.455h-.275c.138.564.138 1.13.275 1.82.137.627.274 1.38.411 2.258.138.879.138 1.882.275 3.012.137 1.13.137 2.51.137 4.141v9.224h-9.33v-31.373zm-207.403 40.75H9.098V210.4h37.804v5.664h-12.76v41.537H21.858v-41.537zm67.378 2.191h12.729v28.67c0 1.184.167 2.21.335 3.08s.67 1.421 1.172 1.974c.503.474 1.34.79 2.177 1.027.838.237 2.01.316 3.183.316s2.344-.08 3.182-.316c1.005-.237 1.674-.553 2.344-1.027.67-.474 1.005-1.106 1.34-1.974.335-.79.503-1.817.503-3.08v-28.67h12.56v27.09c0 1.895-.334 3.554-1.004 4.896-.67 1.343-1.508 2.528-2.512 3.397-1.005.947-2.345 1.658-3.685 2.211-1.34.553-2.847.948-4.354 1.264-1.508.316-3.015.474-4.355.553-1.34.079-2.68.079-3.852.079-1.172 0-2.512 0-4.02-.08a27.367 27.367 0 0 1-4.354-.552c-1.507-.316-2.847-.711-4.187-1.264-1.34-.553-2.512-1.264-3.685-2.211s-1.842-2.054-2.512-3.397c-.67-1.342-1.005-3-1.005-4.896v-27.09z" fill="#fff"/>
    <path fill="#fff" stroke="null" d="M22.6 28c-1 0-2.1-.072-3.2-.144-1.1-.144-2.1-.36-3.1-.72s-2-.936-2.8-1.584c-.9-.72-1.7-1.584-2.3-2.736-.7-1.152-1.2-2.52-1.6-4.248-.4-1.656-.6-3.672-.6-5.976V7.048c0-2.304.2-4.248.6-5.904.4-1.656.9-3.024 1.6-4.104s1.5-2.016 2.4-2.664c.9-.648 1.9-1.152 2.9-1.512s2-.576 3.1-.72c1-.072 2-.144 3-.144s2 .072 3 .144 2.1.288 3.1.648 1.9.792 2.8 1.512 1.7 1.512 2.3 2.664c.7 1.08 1.2 2.52 1.6 4.104.4 1.656.6 3.6.6 5.904v5.544c0 2.304-.2 4.248-.6 5.904-.4 1.656-.9 3.024-1.6 4.176-.7 1.152-1.5 2.088-2.4 2.808-.9.72-1.8 1.224-2.8 1.656-1 .36-2 .648-3 .792-1.1.072-2.1.144-3 .144zm.1-4.968c.8 0 1.5-.144 2-.432.6-.288 1-.792 1.3-1.44.3-.648.6-1.584.7-2.664.2-1.152.2-2.52.2-4.176V5.68c0-1.656-.1-3.024-.2-4.176-.2-1.152-.4-2.016-.7-2.736-.3-.72-.8-1.224-1.3-1.512-.6-.288-1.2-.432-2-.432-.9 0-1.6.144-2.1.432-.6.288-1.1.792-1.4 1.512-.4.72-.7 1.584-.8 2.736-.2 1.152-.2 2.52-.2 4.176v8.64c0 1.656.1 3.024.2 4.176.2 1.152.4 2.016.8 2.664.4.648.9 1.152 1.4 1.44.5.288 1.2.432 2.1.432z" transform="matrix(1.71459 0 0 1 22.278 227.5)"/>
    <path fill="#fff" d="M14 .6h4.556l.552 5c.69-1.9 1.519-3.3 2.416-4.2.897-.9 1.795-1.4 2.76-1.4 1.796 0 3.107.8 4.004 2.4.829 1.6 1.312 4 1.312 7.2 0 .4 0 .9-.069 1.5s-.07 1.1-.207 1.8c-.07.6-.138 1.2-.276 1.8-.138.6-.207 1.2-.345 1.7h-4.349v-4.6c0-1-.07-1.8-.138-2.5a8.11 8.11 0 0 0-.345-1.6c-.138-.4-.345-.7-.552-.8-.208-.2-.415-.2-.622-.2-.483 0-.966.2-1.38.7-.414.5-.76 1.1-1.036 2V50H14V.6z" stroke="null" transform="matrix(2 0 0 .7647 109.4 216.382)"/>
    <path fill="#fff" d="M181 220.193c-2.4 0-4.4-.36-5.8-.993-1.4-.722-2.2-1.715-2.2-2.979 0-.722.2-1.354.6-1.806.4-.451.8-.903 1.6-1.173.6-.271 1.6-.542 2.4-.632 1-.09 2.2-.181 3.4-.181 2.6 0 4.6.27 6 .903 1.4.632 2 1.535 2 2.889 0 1.264-.6 2.167-2 2.89-1.4.721-3.4 1.082-6 1.082zm-7 4.605h13.4v32.773H174v-32.773z"/>
    <path fill="#fff" d="M97 124.204c0-.483.1-.922.3-1.36.2-.44.4-.79.6-1.054h6.3c0 .79.1 1.448.3 1.975.2.527.5.922.9 1.273.4.307.9.527 1.6.658.7.132 1.5.22 2.5.22 1.3 0 2.3-.176 2.9-.483.6-.351.9-.702.9-1.141 0-.22-.1-.44-.2-.659s-.3-.438-.6-.614c-.3-.22-.6-.439-1-.658s-.8-.44-1.3-.702l-6.6-3.38c-.9-.483-1.7-.921-2.5-1.404s-1.5-.966-2.1-1.492c-.6-.527-1.1-1.054-1.5-1.624-.4-.57-.6-1.141-.6-1.756 0-.834.3-1.536 1-2.15.7-.615 1.5-1.141 2.6-1.536s2.4-.703 3.8-.922c1.7-.307 3.2-.395 4.8-.395 1.8 0 3.4.088 4.8.263 1.4.176 2.6.483 3.7.834 1 .395 1.8.834 2.3 1.405.5.57.8 1.185.8 1.93 0 .483-.1.966-.3 1.449-.2.483-.4.878-.6 1.185h-6.2c0-.702-.1-1.317-.2-1.843-.1-.527-.3-.966-.7-1.317-.3-.351-.8-.614-1.3-.79-.6-.176-1.3-.263-2.2-.263-.8 0-1.4.044-2 .175-.5.088-.9.264-1.3.44-.3.175-.5.394-.7.57-.1.22-.2.439-.2.658 0 .483.3.966.8 1.404s1.3.878 2.2 1.405l7.2 3.686c.5.264 1.1.615 1.8 1.01s1.3.834 2 1.316c.6.483 1.1 1.01 1.6 1.58.4.57.6 1.185.6 1.8 0 .746-.3 1.448-.8 2.063-.5.614-1.3 1.14-2.4 1.58-1.1.438-2.4.79-3.9 1.009-1.6.22-3.3.351-5.3.351-1.6 0-3.2-.088-4.6-.263-1.4-.176-2.7-.44-3.8-.79-1.1-.351-1.9-.834-2.5-1.449-.6-.57-.9-1.272-.9-2.194z" stroke="null" transform="matrix(1.64825 0 0 1.78565 33.095 28.256)"/>
    <path fill="#fff" d="M236.94 219.278h12.667l6.142 14.84a41.542 41.542 0 0 1 1.535 4.69c.384 1.46.768 2.92 1.024 4.228h.384c.383-1.307.767-2.691 1.023-4.229.384-1.46.896-3.075 1.536-4.69l6.397-14.839h12.412v38.443h-9.085v-12.686c0-1.922 0-3.844.128-5.613 0-1.768.128-3.46.256-4.997s.256-2.845.384-3.998a40.47 40.47 0 0 1 .384-2.768h-.768l-9.725 25.065h-6.141l-9.725-25.065H245c.128.692.256 1.614.384 2.768.128 1.153.256 2.46.384 3.998.128 1.537.128 3.152.256 4.997 0 1.769.128 3.69.128 5.613v12.686h-9.213v-38.443z"/>
</g>
			
		</defs>

		

			<use xlink:href="#background" fill="url(#background-gradient)" />

		

			<g mask="url(#mask)">
				<g transform="
				        translate(
                                50 50
)
                            translate(-5 -5) rotate(354) scale(0.6500000000000001)  
                            translate(
                                -50 -50
)">
						<use xlink:href="#picture"   />
				</g>
			</g>

		



	</svg>
